<?xml version="1.0" encoding="UTF-8" standalone="no"?>
<svg
   xmlns:dc="http://purl.org/dc/elements/1.1/"
   xmlns:cc="http://creativecommons.org/ns#"
   xmlns:rdf="http://www.w3.org/1999/02/22-rdf-syntax-ns#"
   xmlns:svg="http://www.w3.org/2000/svg"
   xmlns="http://www.w3.org/2000/svg"
   xmlns:sodipodi="http://sodipodi.sourceforge.net/DTD/sodipodi-0.dtd"
   xmlns:inkscape="http://www.inkscape.org/namespaces/inkscape"
   width="287.00803mm"
   height="272.74957mm"
   viewBox="0 0 287.00803 272.74957"
   version="1.1"
   id="svg8"
   inkscape:version="1.0.1 (3bc2e813f5, 2020-09-07)"
   sodipodi:docname="Logo_of_the_Ministry_of_Energy_and_Mineral_Resources_of_the_Republic_of_Indonesia.svg">
  <defs
     id="defs2" />
  <sodipodi:namedview
     id="base"
     pagecolor="#ffffff"
     bordercolor="#666666"
     borderopacity="1.0"
     inkscape:pageopacity="0.0"
     inkscape:pageshadow="2"
     inkscape:zoom="0.23547849"
     inkscape:cx="271.9324"
     inkscape:cy="492.9114"
     inkscape:document-units="mm"
     inkscape:current-layer="layer1"
     inkscape:document-rotation="0"
     showgrid="false"
     fit-margin-top="0"
     fit-margin-left="0"
     fit-margin-right="0"
     fit-margin-bottom="0"
     inkscape:window-width="1366"
     inkscape:window-height="705"
     inkscape:window-x="-8"
     inkscape:window-y="-8"
     inkscape:window-maximized="1" />
  <metadata
     id="metadata5">
    <rdf:RDF>
      <cc:Work
         rdf:about="">
        <dc:format>image/svg+xml</dc:format>
        <dc:type
           rdf:resource="http://purl.org/dc/dcmitype/StillImage" />
        <dc:title></dc:title>
      </cc:Work>
    </rdf:RDF>
  </metadata>
  <g
     inkscape:label="Layer 1"
     inkscape:groupmode="layer"
     id="layer1"
     transform="translate(-249.93148,-17.006411)">
    <g
       id="g857">
      <path
         style="fill:#ffff00;stroke:none;stroke-width:0.179029"
         d="m 349.8913,32.404992 c -1.19986,0.09612 -2.32864,1.006377 -3.40084,1.526995 -3.12353,1.516683 -6.12227,3.360864 -9.13122,5.090109 -11.37982,6.540837 -22.50256,13.866002 -32.92529,21.861991 -2.8804,2.20958 -5.77531,4.407344 -8.60684,6.682807 -1.12126,0.901055 -2.58518,2.565312 -3.94133,2.971351 -0.79292,1.363845 -2.54866,2.340629 -3.76033,3.332094 -2.43874,1.995461 -4.80461,4.121435 -7.14435,6.229685 -7.43741,6.701247 -14.52241,13.685004 -21.37904,20.986716 -2.34251,2.49459 -4.59876,5.10807 -6.72175,7.79422 -1.18049,1.49364 -2.28752,2.47222 -2.49964,4.4453 -1.5687,14.59125 1.24833,29.5001 4.17486,43.68316 5.95946,28.88174 16.60044,57.29477 29.19086,83.96477 4.42525,9.37398 8.88881,18.80704 14.15245,27.74955 1.26055,2.14119 2.47866,4.30566 3.74243,6.44506 0.53709,0.90947 1.0296,2.18774 1.83666,2.89311 0.79991,0.70001 2.1061,0.78415 3.09095,1.05986 2.32075,0.64987 4.66013,1.22098 6.97946,1.87622 10.53981,2.97726 21.69961,5.10771 32.58334,6.19621 33.08785,3.30846 66.7178,3.75246 99.71936,-0.69463 9.18062,-1.2371 18.47046,-2.98442 27.39149,-5.50158 3.06857,-0.8665 7.29366,-1.01688 9.9791,-2.8573 0.8665,-0.59438 1.42865,-2.01945 1.93531,-2.92176 1.18696,-2.11255 2.41331,-4.21972 3.6325,-6.31616 5.26347,-9.0553 9.76248,-18.49552 14.28297,-27.92858 12.72182,-26.54826 23.21115,-55.15894 29.16209,-83.96477 2.83583,-13.7217 5.72357,-28.28502 4.354,-42.42995 -0.50308,-5.1915 -5.94915,-9.83337 -9.39905,-13.49291 -6.64557,-7.045521 -13.36812,-13.995619 -20.65462,-20.387683 -2.54758,-2.236077 -5.06295,-4.52264 -7.67498,-6.68245 -1.24963,-1.033716 -3.13839,-2.074592 -3.95476,-3.478182 -1.48237,-0.415349 -3.19389,-2.356206 -4.40592,-3.362888 -2.58697,-2.146741 -5.3297,-4.115706 -7.97754,-6.185822 -10.32105,-8.069032 -21.55514,-15.366985 -32.91814,-21.867004 -2.65142,-1.516737 -5.36014,-2.940915 -7.99724,-4.475125 -1.32302,-0.769683 -3.18135,-2.120245 -4.70668,-2.242414 -0.84681,-1.091131 -2.71946,-1.589351 -3.93865,-2.185788 -3.29235,-1.611962 -6.69104,-2.966176 -10.02564,-4.47312 -6.66007,-3.00977 -13.66639,-5.393134 -20.77009,-7.038084 -3.21018,-0.743391 -6.3337,-1.779803 -9.6649,-1.696911 -2.63066,0.06545 -5.32917,1.114562 -7.87658,1.696911 -6.1416,1.403995 -12.25975,3.398525 -18.08268,5.869703 -4.19448,1.780071 -8.47919,3.468318 -12.53206,5.551861 -1.24049,0.637721 -3.26621,1.133185 -4.11767,2.275428"
         id="path841"
         sodipodi:nodetypes="csccscscsssssccccccsccccccccccccccsccssssssc" />
      <path
         style="fill:#040203;stroke:none;stroke-width:0.179029"
         d="m 349.8913,32.404992 c -1.19986,0.09612 -2.32864,1.006377 -3.40084,1.526995 -3.12353,1.516683 -6.12227,3.360864 -9.13122,5.090109 -11.37982,6.540837 -22.50256,13.866002 -32.92529,21.861991 -2.8804,2.20958 -5.77531,4.407344 -8.60684,6.682807 -1.12126,0.901055 -2.58518,2.565312 -3.94133,2.971351 -0.79292,1.363845 -2.54866,2.340629 -3.76033,3.332094 -2.43874,1.995461 -4.80461,4.121435 -7.14435,6.229685 -7.43741,6.701247 -14.52241,13.685004 -21.37904,20.986716 -2.34251,2.49459 -4.59876,5.10807 -6.72175,7.79422 -1.18049,1.49364 -2.28752,2.47222 -2.49964,4.4453 -1.5687,14.59125 1.24833,29.5001 4.17486,43.68316 5.95946,28.88174 16.60044,57.29477 29.19086,83.96477 4.42525,9.37398 8.88881,18.80704 14.15245,27.74955 1.26055,2.14119 2.47866,4.30566 3.74243,6.44506 0.53709,0.90947 1.0296,2.18774 1.83666,2.89311 0.79991,0.70001 2.1061,0.78415 3.09095,1.05986 2.32075,0.64987 4.66013,1.22098 6.97946,1.87622 10.53981,2.97726 21.69961,5.10771 32.58334,6.19621 33.08785,3.30846 66.7178,3.75246 99.71936,-0.69463 9.18062,-1.2371 18.47046,-2.98442 27.39149,-5.50158 3.06857,-0.8665 7.29366,-1.01688 9.9791,-2.8573 0.8665,-0.59438 1.42865,-2.01945 1.93531,-2.92176 1.18696,-2.11255 2.41331,-4.21972 3.6325,-6.31616 5.26347,-9.0553 9.76248,-18.49552 14.28297,-27.92858 12.72182,-26.54826 23.21115,-55.15894 29.16209,-83.96477 2.83583,-13.7217 5.72357,-28.28502 4.354,-42.42995 -0.50308,-5.1915 -5.94915,-9.83337 -9.39905,-13.49291 -6.64557,-7.045521 -13.36812,-13.995619 -20.65462,-20.387683 -2.54758,-2.236077 -5.06295,-4.52264 -7.67498,-6.68245 -1.24963,-1.033716 -3.13839,-2.074592 -3.95476,-3.478182 -1.48237,-0.415349 -3.19389,-2.356206 -4.40592,-3.362888 -2.58697,-2.146741 -5.3297,-4.115706 -7.97754,-6.185822 -10.32105,-8.069032 -21.55514,-15.366985 -32.91814,-21.867004 -2.65142,-1.516737 -5.36014,-2.940915 -7.99724,-4.475125 -1.32302,-0.769683 -3.18135,-2.120245 -4.70668,-2.242414 -0.84681,-1.091131 -2.71946,-1.589351 -3.93865,-2.185788 -3.29235,-1.611962 -6.69104,-2.966176 -10.02564,-4.47312 -6.66007,-3.00977 -13.66639,-5.393134 -20.77009,-7.038084 -3.21018,-0.743391 -6.3337,-1.779803 -9.6649,-1.696911 -2.63066,0.06545 -5.32917,1.114562 -7.87658,1.696911 -6.1416,1.403995 -12.25975,3.398525 -18.08268,5.869703 -4.19448,1.780071 -8.47919,3.468318 -12.53206,5.551861 -1.24049,0.637721 -3.26621,1.133185 -4.11767,2.275428 m 28.46567,11.278849 -3.75962,1.432235 v 0.179029 h 0.71612 v 0.17903 c -5.75401,1.331083 -11.25128,4.206294 -16.64973,6.548177 -8.75203,3.796497 -17.54506,7.497213 -26.31732,11.2511 -4.54395,1.944617 -9.08717,4.30136 -13.78526,5.832598 4.5264,4.332152 9.36073,9.311496 14.50138,12.890113 v 0.358059 l -32.04626,18.699438 -9.66759,5.65052 -5.72894,3.22056 4.65477,-4.65494 10.92079,-10.569534 11.99497,-11.64586 5.01282,-4.817859 v -0.179029 l -5.53577,-6.445057 -2.34152,-3.222529 c 4.92098,-2.800556 9.495,-6.484622 14.14332,-9.717534 8.15532,-5.672366 16.3597,-11.27885 24.52702,-16.936893 3.57557,-2.47723 7.12519,-5.004229 10.74176,-7.420839 1.15331,-0.770596 2.90046,-2.594851 4.29671,-2.775886 1.07596,-0.139499 2.79769,1.952011 3.5813,2.612611 2.45861,2.072695 4.89717,4.168054 7.33949,6.261445 1.10497,0.947065 2.75884,1.952136 3.40156,3.271045 m 97.21295,24.885081 v 0.179029 c -1.89772,2.173416 -3.69696,4.432409 -5.57319,6.624086 -0.56394,0.658828 -1.94068,1.780626 -2.01945,2.685441 -0.0716,0.823356 1.33019,1.806227 1.86191,2.311269 2.14835,2.043262 4.24836,4.143992 6.44684,6.133545 5.61078,5.076915 10.87425,10.616083 16.29168,15.900488 2.35065,2.29301 5.88111,4.66265 7.51923,7.52192 l -6.98215,-4.00972 -11.63691,-6.803113 -28.6447,-16.757685 c 0.82354,-1.690037 3.07215,-3.111888 4.47574,-4.347907 3.30667,-2.910301 6.7315,-5.787303 9.84661,-8.900265 -4.87318,-1.649219 -9.58702,-4.092611 -14.32235,-6.109914 L 425.44169,51.305658 c -4.89395,-2.088378 -9.71324,-4.426859 -14.85944,-5.831523 v -0.17903 h 0.71612 v -0.179029 l -3.75962,-1.432235 c 0.65561,-1.404843 2.24539,-2.337586 3.40156,-3.326186 2.39506,-2.048275 4.74338,-4.155809 7.16118,-6.176746 0.82085,-0.686184 2.45735,-2.669668 3.58058,-2.632376 1.29385,0.04293 3.07949,1.87834 4.11768,2.585148 3.47675,2.366965 6.92486,4.779386 10.3837,7.172113 8.47525,5.861958 16.93797,11.742536 25.42217,17.590888 4.63328,3.19442 9.5548,6.175975 13.9643,9.67224 M 444.59783,83.0703 v 0.179029 c -7.51386,4.385861 -16.44241,7.114089 -24.88508,9.013949 -2.08211,0.468699 -4.15706,0.913587 -6.26603,1.239957 -0.66652,0.103121 -1.62308,0.493942 -2.27743,0.200155 -1.16154,-0.521512 -1.50546,-4.29205 -1.84669,-5.441239 -1.12788,-3.799003 -2.11451,-7.643658 -3.19102,-11.457879 -0.37847,-1.341288 -0.55087,-3.690332 -1.43116,-4.776861 -0.5532,-0.682818 -1.93405,-0.41499 -2.71158,-0.41499 h -7.3402 -8.77244 c -0.92021,0 -2.71498,-0.342125 -3.50557,0.184042 -1.11178,0.739928 -1.45927,4.28274 -1.81268,5.544897 -1.53571,5.48546 -3.44076,11.060971 -4.52837,16.64973 -2.97385,-0.02453 -6.06444,-0.869545 -8.95146,-1.521928 -6.60672,-1.492747 -13.0815,-3.44918 -19.33518,-6.073213 -2.2939,-0.962641 -4.47287,-2.298737 -6.80311,-3.14662 0.9818,-1.79459 4.16512,-3.008767 5.90797,-3.98949 5.69653,-3.205342 11.64586,-5.883263 17.90293,-7.805501 26.93837,-8.276348 56.42004,-4.188034 79.8471,11.615962 m -52.09754,-9.488556 v 5.54991 c -2.17432,-0.841975 -5.42388,-3.676368 -6.80312,-5.54991 h 6.80312 m 8.59341,0 c -1.54986,2.105385 -4.46679,4.074708 -6.62409,5.54991 v -5.54991 h 6.62409 m -17.54488,0.895146 c 2.02178,1.523719 3.98931,3.18171 5.90797,4.833793 0.53207,0.458136 1.88052,1.217579 1.98346,1.969323 0.13177,0.96282 -2.40311,2.397561 -3.05764,2.942347 -3.21035,2.671835 -6.36055,5.672725 -9.84661,7.978444 l 3.30166,-12.173997 1.71116,-5.54991 m 19.87226,0 2.13206,7.519233 2.88076,10.562732 -9.48856,-7.771843 -3.93864,-3.686035 8.41438,-6.624087 m -10.92079,8.951468 v 11.815938 l -13.42721,-0.716118 c 1.94749,-2.546513 5.21441,-4.536066 7.69827,-6.554443 1.82413,-1.482363 3.63859,-3.466725 5.72894,-4.545377 m -16.82876,11.636908 -5.08873,18.440024 -2.60954,9.66759 c -5.92515,-0.0163 -12.5197,-1.44996 -18.26099,-2.86447 0.64397,-1.69828 2.07208,-3.23542 3.18493,-4.65477 2.94342,-3.75353 7.05608,-8.97259 11.85353,-10.3837 v -0.17903 c -6.60922,0 -12.26673,2.53219 -17.36584,6.67959 -1.53858,1.25141 -3.1067,2.61185 -4.4598,4.06217 -0.59725,0.64021 -1.33127,1.9781 -2.22248,2.21925 -0.64396,0.1742 -1.46983,-0.23632 -2.09016,-0.38742 -1.687,-0.41141 -3.35537,-0.8955 -5.01283,-1.41272 -6.40101,-1.99779 -12.43914,-4.47018 -18.61905,-7.04319 0.87062,-2.26311 2.88542,-4.36116 4.35937,-6.26603 3.97069,-5.131878 8.54417,-9.87186 13.54357,-14.009049 1.58083,-1.308168 3.17186,-2.612396 4.83379,-3.817801 0.58668,-0.425374 1.39285,-1.243359 2.14835,-1.293308 1.01313,-0.06696 2.51053,1.085813 3.40156,1.531059 2.48994,1.244075 5.09177,2.286026 7.69826,3.257797 5.44769,2.030909 10.97271,3.684961 16.64973,4.945865 2.63102,0.584173 5.49638,0.698573 8.05633,1.508143 m 18.97711,-11.457878 8.23535,6.872221 4.47573,3.86954 c -4.04033,0.993255 -8.74648,0.895147 -12.89011,0.895147 v -7.877292 l 0.17903,-3.759616 m 75.90845,25.959252 c -6.70286,2.79071 -13.41109,5.3315 -20.40935,7.31514 -1.66497,0.47193 -3.34068,0.88333 -5.01282,1.32572 -0.61944,0.16381 -1.52533,0.55069 -2.14835,0.28895 -1.60589,-0.67422 -3.23864,-2.88076 -4.47574,-4.09333 -2.31664,-2.26937 -4.91614,-4.27701 -7.51923,-6.20229 -1.20666,-0.89246 -2.65733,-2.14567 -4.11696,-2.58214 -1.41881,-0.42448 -2.88201,3.12227 -3.45258,4.12698 -0.22773,0.40121 -0.65668,0.92791 -0.62069,1.4163 0.0666,0.9016 3.04743,3.64272 3.89353,3.93435 0.81959,0.28233 1.75269,-0.7623 2.68544,-0.6556 2.55654,0.29271 5.83456,3.61174 6.80311,5.86769 -5.75758,0.74368 -11.52269,2.66932 -17.36585,2.68544 l -2.55385,-9.48856 -5.14441,-18.619053 c 2.06618,-0.627856 4.33412,-0.707166 6.44506,-1.190724 5.86769,-1.344332 11.7676,-2.871631 17.36585,-5.111109 2.53326,-1.013485 5.054,-2.026971 7.51923,-3.205521 0.85218,-0.407292 2.26293,-1.511187 3.22253,-1.396787 0.78236,0.09327 1.53607,0.896042 2.14835,1.339677 1.59694,1.158678 3.12048,2.416538 4.65477,3.656495 4.99491,4.036038 9.55479,8.90689 13.50239,13.964292 1.61127,2.06224 3.53583,4.20307 4.57957,6.62408 M 408.07584,95.244296 v 0.179029 c -4.4077,2.998384 -8.83581,6.757465 -13.60623,9.130495 v -8.414377 c 4.47054,0 9.20139,-0.07734 13.60623,-0.895147 m -15.57555,9.488554 -4.8338,-3.0734 -8.95146,-6.057095 3.93864,0.127826 6.44506,0.409262 3.21751,0.286984 0.18405,2.219427 v 6.086996 m 17.18682,-7.87729 6.62408,23.98993 c -3.19281,-1.21023 -6.3448,-4.04105 -9.1305,-6.01109 -3.93721,-2.78426 -8.17072,-5.19274 -11.99496,-8.13223 1.17837,-1.44727 3.12907,-2.35459 4.65476,-3.40621 2.947,-2.03126 6.45347,-5.31538 9.84662,-6.4404 m -18.261,9.84661 -12.89011,8.72231 -7.8773,5.24198 6.44506,-23.631871 c 1.66229,0.530643 3.20516,1.957686 4.65476,2.924087 2.98353,1.989014 7.38497,3.981794 9.66759,6.743494 m 1.07418,1.7903 v 16.29167 l -22.19965,-1.25321 c 1.11446,-1.73765 4.03712,-2.95058 5.72894,-4.12215 3.61443,-2.50265 7.28578,-4.92366 10.9208,-7.39731 1.70686,-1.16154 3.57521,-2.88864 5.54991,-3.519 m 2.14835,0.17903 c 4.24156,2.8591 8.42906,5.8206 12.71108,8.61829 2.83082,1.84955 6.40102,3.65077 8.77244,6.06211 l -7.16117,0.74656 -14.50138,0.68568 v -11.09982 l 0.17903,-5.01282 m -54.60396,10.3837 c -0.86507,1.26627 -2.75025,4.80622 -4.29742,5.12794 -1.06415,0.2211 -2.23536,-0.54926 -3.22181,-0.83124 -0.60763,2.10915 -2.59217,3.96371 -2.97601,6.087 -0.21089,1.16584 1.14973,2.24449 0.94778,3.58059 -0.49107,3.2501 -1.71098,6.40012 -2.21548,9.66759 -0.86758,5.61937 -0.8427,10.99508 -0.76911,16.64973 h -28.28664 c 0.30864,-1.29654 0.10473,-2.62046 0.19514,-3.93865 0.20051,-2.92892 0.50432,-5.86697 0.95494,-8.77244 1.36671,-8.812 4.03747,-17.32252 7.74606,-25.42217 1.29582,-2.82974 2.77603,-5.5372 4.32517,-8.23535 0.4295,-0.74798 1.13612,-2.51411 2.0148,-2.78963 0.61407,-0.19246 1.42239,0.4311 1.9507,0.68049 1.57707,0.7444 3.21591,1.42077 4.8338,2.07316 6.13891,2.47544 12.64574,3.80186 18.79808,6.12298 m 145.90894,40.28161 h -29.71888 c 0,-7.12036 -0.7555,-13.98596 -2.3059,-20.94644 -0.47442,-2.12526 -2.18594,-5.75544 0.51561,-6.80311 l -3.22253,-6.26603 -2.50641,0.89514 -4.83379,-6.80311 c 6.61871,-1.28346 13.23743,-3.51023 19.5142,-5.94181 1.8619,-0.72113 3.70233,-1.46947 5.54991,-2.22247 0.58542,-0.23828 1.46088,-0.82765 2.11613,-0.64593 0.89335,0.24813 1.5665,1.97755 1.98543,2.72321 1.45372,2.59414 2.85194,5.18666 4.12305,7.87729 5.56244,11.77584 8.78318,25.09598 8.78318,38.13326 m -62.12319,-18.79809 -2.89151,-10.20467 -1.58423,-6.44506 c 4.03031,-0.0333 8.39827,-1.02959 12.35303,-1.79029 1.30512,-0.251 3.92969,-1.32464 5.18469,-0.8384 0.75371,0.29182 1.30691,1.29564 1.77418,1.91258 1.36957,1.80819 3.78826,5.45287 1.88518,7.80926 -0.90589,1.12287 -2.96652,1.75985 -4.18929,2.51786 -3.85808,2.39058 -8.27402,5.48869 -12.53205,7.03872 m -56.21523,-16.29167 -4.65476,17.00779 c -1.53876,-0.27427 -2.95739,-1.35275 -4.2967,-2.1215 -2.61312,-1.50008 -5.21674,-3.04905 -7.8773,-4.4632 -1.44011,-0.76553 -3.75406,-1.68019 -4.65386,-3.09005 -1.61091,-2.52467 -0.0149,-5.47829 1.22742,-7.6911 0.4166,-0.74207 0.93346,-2.06045 1.69505,-2.49889 1.05162,-0.6053 3.80241,0.48714 4.95392,0.7086 4.40771,0.8477 9.33495,0.85039 13.60623,2.14835 m 46.54764,0.35806 v 0.17903 l -14.14332,8.59538 -5.54991,3.22056 v -10.92079 l 19.69323,-1.07418 m -21.66255,1.07418 v 11.09982 l -5.37088,-3.1144 -14.50138,-8.70154 c 1.64402,-0.6898 4.16386,0.0954 5.90797,0.17205 4.66962,0.20463 9.27604,0.54407 13.96429,0.54407 m 25.06411,-0.53709 4.47573,16.4707 -7.69826,4.40466 -3.58059,1.77221 -4.47573,-2.45378 -10.92079,-6.58756 v -0.35806 c 5.27438,-2.80736 10.2881,-6.24472 15.39652,-9.34587 2.01945,-1.22599 4.47627,-3.45365 6.80312,-3.9023 m -26.31732,13.24817 v 0.35806 c -3.87527,2.38037 -7.73675,4.7851 -11.63691,7.12537 -1.10013,0.66008 -3.15987,2.52485 -4.47573,2.4271 -1.07024,-0.0793 -2.48744,-1.20666 -3.40156,-1.74625 -2.35352,-1.38891 -4.74965,-2.76314 -7.16118,-4.0466 l 4.65477,-17.18682 c 2.48224,0.44793 5.20868,2.84674 7.3402,4.17425 4.85528,3.02398 9.80616,5.9008 14.68041,8.89489 m 60.69096,-11.45788 0.17903,0.17903 -0.17903,-0.17903 m 0.17903,0.35806 0.17903,0.17903 -0.17903,-0.17903 m 1.07417,32.04626 h -17.7239 -4.47574 c -0.52276,0 -1.39464,0.15862 -1.83917,-0.18405 -0.93632,-0.72328 -1.23011,-3.53529 -1.53517,-4.64975 -0.4107,-1.50044 -1.95769,-4.74159 -1.49991,-6.2329 0.29665,-0.96623 2.42728,-1.76792 3.26299,-2.22283 2.95577,-1.60894 5.7916,-3.4533 8.77244,-5.01712 1.92993,-1.01259 5.04862,-3.85003 7.3402,-3.25601 2.12508,0.55088 3.02918,3.24616 3.6701,5.09195 1.80641,5.2017 3.58954,10.94944 4.02816,16.47071 m -95.24362,0 h -27.74955 c 0.003,-5.23071 1.74679,-11.3331 3.78253,-16.11265 0.7521,-1.76558 1.67679,-3.9544 3.38133,-5.03197 1.16458,-0.73617 3.51774,-0.41499 4.8311,-0.23579 1.99385,0.27231 3.65865,1.45963 5.37089,2.47437 2.61669,1.55057 5.25433,3.06981 7.87729,4.60857 1.22814,0.7206 4.78975,1.99439 5.24663,3.39529 0.28036,0.85952 -0.42877,2.36355 -0.66831,3.20391 -0.71469,2.50641 -1.69255,5.12024 -2.07191,7.69827 m 34.55267,-18.97712 v 17.72391 c -2.10825,-0.40658 -4.42865,-2.21925 -6.26603,-3.32117 -2.93662,-1.76094 -6.09434,-3.20893 -8.95147,-5.09321 1.23512,-1.33699 3.28823,-2.16178 4.83379,-3.11941 3.26962,-2.02589 6.77,-4.87461 10.38371,-6.19012 m 16.29167,8.77244 -9.1305,5.16715 -5.19185,2.71014 v -16.4707 l 6.26603,3.61443 8.05632,4.97898 m 15.39652,0 2.14836,8.23535 -8.05632,-4.83379 c 1.56382,-1.35901 3.96227,-2.69332 5.90796,-3.40156 m -61.40707,0.17903 5.37088,3.22253 v 0.35806 l -7.69826,4.47573 c 0.56108,-2.44733 1.01993,-5.91584 2.32738,-8.05632 m 62.66028,9.84662 v 0.17903 h -18.97711 l 7.16117,-4.2464 2.68544,-1.29152 2.68544,1.42221 6.44506,3.93668 m -46.01055,0 v 0.17903 h -18.08196 l 6.44505,-4.04625 2.50641,-1.32302 2.68545,1.38031 6.44505,3.80993 m -90.40983,-2.14836 0.28215,5.90797 -0.10813,2.39846 -2.32237,0.28698 v -5.72894 h -2.86447 v 4.65477 h -2.32738 v -4.47574 h -3.0435 l 0.17903,5.72894 h -2.50641 v -8.41438 c 3.92414,0 8.90528,0.54801 12.71108,-0.35806 m 38.49132,3.22253 1.61126,8.95147 h 0.17903 l 0.53709,-8.77244 h 27.74955 l -4.09261,14.68041 -1.78725,6.01718 -3.78773,2.26848 -9.48855,5.14154 2.68544,5.72894 c -7.35005,0.31545 -15.22538,1.83684 -21.48353,5.90797 -1.42614,0.92737 -2.8147,1.80999 -4.11767,2.91281 -0.403,0.34194 -1.16495,0.81637 -1.20809,1.40001 -0.0494,0.66957 0.70305,1.58799 1.04052,2.13224 1.07596,1.73479 2.51608,3.35322 3.3901,5.19185 4.81875,-2.066 8.93267,-4.74607 14.14332,-5.92767 2.57712,-0.58542 5.26131,-0.5335 7.87729,-0.71253 5.55098,-0.37954 11.3365,-0.36164 16.82876,0.63555 5.2751,0.95781 10.3171,2.98263 15.39653,4.63149 3.86828,1.25679 7.93314,2.37572 11.99496,2.77496 1.5316,0.15038 3.1169,0.3688 4.65477,0.38849 0.70448,0.007 1.80282,-0.20946 2.44948,0.10742 0.67977,0.33478 0.66724,3.35143 0.23094,3.90284 -0.59777,0.75371 -3.56554,0.29719 -4.47072,0.28645 -5.04773,-0.0609 -9.96119,-1.71511 -14.68041,-3.34606 -13.27914,-4.59032 -27.58574,-6.8998 -41.53481,-4.09261 -3.90588,0.78593 -7.18445,2.78211 -10.92079,3.85808 1.18607,2.3238 3.39529,4.43276 5.05758,6.44505 0.45241,0.54783 1.15349,1.77777 1.97559,1.7169 2.0173,-0.15218 4.16064,-1.34989 6.215,-1.66856 6.03168,-0.93095 12.77232,-1.07238 18.85627,-0.50844 8.62474,0.79668 16.36293,4.41307 24.64787,6.59544 3.45491,0.90947 7.16995,1.58262 10.73908,1.74375 0.86847,0.0394 3.56877,-0.22558 4.11534,0.46368 0.32226,0.40819 0.18405,1.20129 0.18405,1.68288 0,0.63197 0.23291,1.87265 -0.18405,2.39899 -0.5754,0.72686 -3.25099,0.28645 -4.11266,0.28645 -5.75794,0 -11.08836,-2.01945 -16.4707,-3.8187 -5.43247,-1.81894 -10.91524,-3.51255 -16.64973,-4.04606 -5.31843,-0.49412 -10.59174,-0.89873 -15.93362,-0.53351 -2.84549,0.19514 -5.60039,0.87367 -8.41438,1.23709 2.37966,2.33097 4.89377,4.47216 7.51924,6.52025 1.17139,0.91484 2.38037,2.18416 3.75961,2.77317 1.2482,0.53351 3.13749,0.19514 4.47574,0.19514 3.01378,0 5.95953,0.0143 8.95147,0.40819 7.04355,0.92558 13.41592,3.96908 20.23032,5.74505 4.0432,1.05448 8.01425,1.81536 12.17399,2.23071 0.89533,0.0895 3.91967,-0.19873 4.47072,0.49591 0.48159,0.6087 0.18405,2.19669 0.18405,2.93608 v 7.69826 c -36.12831,0 -69.57726,-21.82726 -84.70113,-54.60395 -5.79697,-12.56321 -8.57317,-26.48937 -8.57317,-40.28161 h 18.79808 l 9.48856,-0.17903 m 35.9849,0 c 4.14238,0.98627 9.34605,0.17903 13.60623,0.17903 2.99552,0 5.53111,-0.0485 7.87729,2.14835 -1.62397,0.9895 -4.55468,3.36773 -6.44505,3.52097 -0.75318,0.061 -1.79083,-0.53726 -2.50642,-0.77591 -2.29157,-0.76374 -4.4888,-1.85421 -6.80311,-2.62564 -1.49794,-0.49932 -3.00537,-1.01134 -4.47574,-1.58638 -0.43253,-0.16936 -1.45318,-0.32261 -1.2532,-0.86042 m 60.15387,0.17903 c -3.10115,2.05884 -7.38604,2.35334 -10.72583,3.97803 -1.57671,0.76714 -4.28686,2.30859 -6.10992,1.95805 -2.02697,-0.38993 -4.47322,-2.38628 -6.25904,-3.42967 v -0.35806 l 3.75961,-2.03216 6.62409,-0.11619 h 12.71109 m 30.97208,8.59341 h 0.17903 l 1.43223,-8.59341 h 29.71888 c 0,36.89616 -21.16306,71.68694 -55.32008,86.81313 -7.73532,3.42483 -15.96763,5.89722 -24.34799,7.1003 -3.92701,0.56394 -7.90254,0.47801 -11.81594,0.97213 v -10.92079 c 11.59197,0 21.94273,-5.8829 33.12043,-7.97397 3.49824,-0.65345 7.02153,-0.61944 10.56274,-0.61944 1.47162,0 3.63429,0.39745 5.01282,-0.15396 1.20666,-0.48159 2.38467,-1.69362 3.40156,-2.49567 2.47776,-1.95679 5.5875,-4.19108 7.3402,-6.83893 -10.26017,-1.32481 -20.18735,-1.99259 -30.43499,0.25423 -9.8314,2.1573 -18.77571,6.90695 -29.00276,6.90695 0,-1.05448 -0.48284,-3.70412 0.18404,-4.54735 0.50648,-0.63913 3.13248,-0.43325 3.93364,-0.47263 3.18851,-0.15397 6.606,-0.98646 9.66758,-1.86012 7.89878,-2.2504 15.3131,-5.54275 23.57996,-6.31257 4.71026,-0.43863 9.78395,-0.21305 14.50854,0.002 1.79208,0.0823 3.62355,0.68031 5.41564,0.47979 l 1.43223,0.17903 v 0.17903 h -0.71611 v 0.17903 c 1.3821,0.18619 3.5215,1.52712 4.832,1.26574 0.73581,-0.1468 1.21919,-1.07597 1.63633,-1.6238 1.11356,-1.46267 2.6192,-2.72482 3.61639,-4.24657 0.30793,-0.46906 1.366,-1.65423 0.91663,-2.18058 -0.91126,-1.06522 -3.28161,-1.63633 -4.5563,-2.16446 -5.07727,-2.10539 -10.68805,-2.65859 -16.11264,-3.02918 -7.6911,-0.52635 -16.03978,0.57647 -23.45285,2.62457 -8.38072,2.31485 -16.0285,5.95273 -24.88508,5.95273 v -4.29671 c 11.29639,0 21.01733,-5.62868 31.86723,-7.65171 5.75758,-1.07239 11.71389,-1.17802 17.54488,-0.77878 3.53045,0.24169 6.96066,0.37775 10.3837,1.39822 4.12842,1.22993 7.54072,3.60207 11.45788,5.24198 0.81279,-1.71152 2.15372,-3.28698 3.24759,-4.8338 0.44937,-0.63555 1.26574,-1.66676 1.18518,-2.50462 -0.0591,-0.62123 -0.77341,-1.05806 -1.21024,-1.4197 -1.36241,-1.1243 -2.78033,-2.11792 -4.29671,-3.02201 -6.40925,-3.82228 -14.05738,-5.6115 -21.48352,-5.76475 l 2.86447,-5.72894 c -2.55117,-0.87134 -5.00208,-2.67524 -7.34021,-4.01509 -0.95422,-0.54729 -2.39899,-1.08546 -3.0972,-1.95178 -1.22457,-1.52282 -1.47163,-4.69415 -1.99081,-6.56518 -1.40717,-5.05919 -3.51972,-10.37404 -4.22151,-15.57556 h 17.54487 4.47574 l 1.83684,0.18404 0.5353,2.14334 0.85039,6.26603 m 53.35075,-7.87729 -0.32941,5.91065 -0.31509,1.97506 -3.47317,0.008 -9.30953,-0.55302 0.17903,-2.86447 10.3837,0.71612 0.35806,-5.37088 2.50641,0.17903 m -131.76562,6.087 v 0.35806 l -21.84158,12.17399 c 0.38098,-4.66479 2.60864,-9.41963 3.71808,-13.96429 0.20016,-0.81924 0.64845,-4.07506 1.52802,-4.33018 1.05967,-0.30722 3.39905,1.05932 4.42149,1.42686 4.07667,1.46536 8.06903,2.94683 12.17399,4.33556 m 51.38143,-5.90797 5.37088,19.87226 c -5.93392,-2.55708 -11.58284,-6.44685 -17.18682,-9.66759 -1.7441,-1.00238 -5.26883,-2.1684 -6.26602,-3.93864 l 13.24817,-4.63042 4.83379,-1.63561 m -35.08975,6.087 v 3.58058 l -3.75962,-1.2532 c 0.62481,-1.10927 2.56334,-1.97559 3.75962,-2.32738 m -102.94189,0.89514 0.0705,2.67005 -2.03986,1.87837 -5.01282,3.68693 c 2.00029,-0.3713 5.13331,-1.09601 7.13485,-0.78719 0.71702,0.11082 1.00436,1.78367 0.45492,2.21513 -0.6676,0.52402 -2.29498,0.33013 -3.11404,0.43827 -3.11153,0.41105 -6.35071,0.81923 -9.48856,0.81923 l -0.0704,-2.3204 2.03968,-1.8243 5.19186,-3.91162 -7.8773,0.71612 -0.35805,-2.32738 13.06914,-1.25321 m 107.77568,1.61127 -2.86447,1.07417 v -2.68544 l 2.86447,1.61127 m -7.16118,2.68544 -17.36584,6.087 c 2.22569,-2.25631 6.20533,-3.6556 8.95146,-5.26347 1.27648,-0.74727 2.83708,-2.07208 4.29671,-2.36175 1.08331,-0.21484 3.50092,0.6343 4.11767,1.53822 m 18.97712,4.11767 v 0.17903 l -12.53206,-4.2967 c 0.51328,-0.74978 2.51429,-1.49311 3.40156,-1.19431 3.19782,1.07651 6.14017,3.73688 9.1305,5.31198 m 98.10809,-4.2967 -0.35806,2.86447 -3.04349,0.53709 -0.45474,4.20199 2.60309,1.52695 -0.35806,2.32738 -8.77244,-4.09279 -3.21716,-1.75019 0.17366,-3.28752 13.4272,-2.32738 m -114.75782,1.43153 v 14.14332 h -35.80588 c 2.9035,-2.99444 7.99277,-4.32535 11.81594,-5.67362 4.95768,-1.74858 9.91053,-3.51739 14.85944,-5.2862 3.00769,-1.07489 6.01252,-2.46863 9.1305,-3.1835 m 35.26878,13.96429 v 0.17903 h -33.29946 v -14.14332 l 11.63691,4.10819 12.71108,4.57724 8.95147,5.27886 m 69.10534,-10.74176 v 0.17903 l 4.11768,1.96932 0.35805,-2.86447 -4.47573,0.71612 m -205.52572,3.93865 1.96933,8.05632 -2.50641,0.53709 -1.25321,-5.37088 -2.68544,0.71611 1.07418,4.29671 c -0.29755,0.13158 -0.58633,0.26013 -0.89963,0.35197 -2.63782,0.7743 -1.26323,-2.77746 -2.60291,-3.79148 -0.58793,-0.44507 -2.1009,0.25923 -2.76349,0.39601 l 1.43223,5.54991 -2.50641,0.53709 -1.96932,-8.23535 c 3.91358,-1.10229 8.66019,-2.85839 12.71108,-3.0435 m 207.67407,6.26603 6.087,-0.53709 -0.71612,2.68544 -5.54991,0.53709 c -0.0806,0.62302 -0.54604,1.68842 -0.2954,2.27743 0.44937,1.0543 3.59491,1.23172 4.59211,1.66121 l -0.53709,2.50641 -4.83379,-1.09494 -7.8773,-2.12759 c 0.50487,-2.44786 1.03658,-6.40889 2.91818,-8.18611 2.02841,-1.91633 5.93483,-0.42233 6.21232,2.27815 m -6.087,3.93864 3.0435,0.71612 c 0.32584,-1.14919 1.06881,-2.73933 0.58364,-3.93077 -0.42251,-1.03765 -1.92278,-1.17014 -2.60667,-0.32512 -0.66241,0.81906 -0.93632,2.51125 -1.02047,3.53977 m -100.43547,-1.2532 v 12.71108 c -3.80491,0 -7.33,0.111 -11.09982,-0.71791 -5.98657,-1.31765 -11.59842,-3.97624 -17.54488,-5.46218 -5.85194,-1.46411 -12.0562,-2.23429 -18.08197,-2.23429 1.4428,-1.46285 5.31324,-3.85307 7.34021,-4.24747 2.83296,-0.55141 6.24203,-0.0492 9.13049,-0.0492 h 30.25597 m 45.83152,4.11767 v 0.17903 c -6.30005,0 -12.90802,0.8529 -18.97712,2.58339 -8.30535,2.36677 -16.09617,6.01002 -24.88508,6.01002 v -12.89011 h 25.24314 7.87729 c 1.17676,0 2.6192,-0.22325 3.75962,0.0893 2.30053,0.63072 4.98955,2.71355 6.98215,4.02834 m -153.07012,11.45788 -0.74959,-2.49925 3.67905,-3.77394 -0.60207,-2.32022 c -0.95763,0.32404 -3.82604,1.92994 -4.74249,1.40896 -0.58561,-0.33299 -0.82067,-1.6972 -0.98645,-2.30411 2.83457,-1.26233 5.80556,-2.38306 8.77244,-3.29664 0.84394,-0.25977 2.1342,-1.08009 3.01968,-0.96211 0.80564,0.10742 1.11428,1.83613 1.35293,2.46846 0.8298,2.20027 2.38807,5.24914 0.40228,7.30261 -0.95441,0.98645 -2.54276,1.51101 -3.87975,1.16369 -0.61353,-0.15934 -1.32141,-0.8307 -1.96932,-0.58543 -1.65924,0.63019 -2.63674,2.65859 -4.29671,3.39798 m 4.47574,-9.48856 c 0.33443,0.98825 0.66259,2.77854 1.50277,3.44811 0.80205,0.63913 2.3161,0.28108 2.55529,-0.76625 0.25422,-1.11177 -0.67262,-2.70495 -1.01456,-3.75603 l -3.0435,1.07417 m 201.58707,0.35806 -1.96932,5.37088 2.68544,1.07418 1.61126,-4.29671 2.14835,0.89515 -1.61126,4.29671 2.86447,0.89514 1.79029,-5.19185 2.32738,0.71612 -2.86446,7.87729 c -4.05681,-0.59975 -8.34993,-3.00053 -12.174,-4.47573 l 2.86447,-7.8773 2.32738,0.71612 m -191.74046,17.54488 h -0.17903 c -0.40066,-0.50486 -1.24353,-1.27827 -1.22402,-1.96932 0.0369,-1.30871 1.48809,-1.955 0.41589,-3.3944 -1.78027,-2.38825 -6.49519,-0.0233 -7.48021,2.1573 -1.00579,2.22534 1.32482,3.24939 3.09649,3.02739 l -1.07417,-2.32738 c 0.50182,-0.29361 1.31407,-0.90589 1.93119,-0.74834 1.04624,0.26675 2.19257,3.53762 2.36551,4.50795 l -6.087,2.86447 c -0.43862,-1.10103 -0.27445,-1.52891 0.35806,-2.50641 -4.56131,0.0394 -3.47012,-6.11027 -1.53267,-8.21923 1.64546,-1.7903 5.02822,-3.0632 7.44064,-2.38109 4.37673,1.23709 4.77489,6.0494 1.96932,8.98906 m 196.75328,-1.61127 -1.18875,2.14478 -3.10795,0.36343 -6.44506,0.35626 v 0.17903 l 7.3402,3.58059 c -0.17365,0.60512 -0.50486,1.85475 -1.2711,1.92636 -0.96139,0.0895 -2.54938,-1.0885 -3.38366,-1.52891 -2.57444,-1.35884 -5.18827,-2.85731 -7.87729,-3.97804 l 1.31228,-2.50283 3.16345,-0.36164 5.72894,-0.35805 v -0.17903 l -6.80311,-3.22253 c 0.10741,-0.60154 0.38849,-1.84042 1.11177,-1.99081 0.88261,-0.18261 2.41331,1.03121 3.18493,1.40717 2.74452,1.33735 5.42459,2.988 8.23535,4.16422 m -8.77244,-3.75961 v 0.17903 l 1.43224,0.53709 v -0.17903 l -1.43224,-0.53709 m -182.78898,6.26603 1.2532,2.32738 -6.80311,4.41665 -4.11768,2.38646 -1.25321,-2.32738 10.9208,-6.80311 m 184.57928,10.02564 c -0.24169,0.63913 -0.80205,2.06242 -1.61843,2.09285 -0.89873,0.034 -2.3059,-1.25499 -3.03634,-1.73479 -2.46702,-1.62738 -4.93942,-3.39798 -7.51923,-4.83379 0.15934,-0.67673 0.7555,-2.21281 1.62738,-2.17879 0.96317,0.0376 2.23965,1.25678 3.02738,1.76523 2.51179,1.62379 5.03968,3.21716 7.51924,4.88929 m -12.89012,2.68544 c 1.48953,2.03198 2.79107,4.19466 4.2233,6.26603 0.47085,0.6821 1.30155,1.66497 0.53172,2.44733 -0.69463,0.70537 -1.87265,-0.0412 -2.60667,-0.33479 -2.25756,-0.9023 -4.53481,-1.7706 -6.80311,-2.64963 0.99003,0.86471 2.01766,1.68467 3.0435,2.50641 1.07954,0.86292 2.93608,1.86549 3.6325,3.07393 0.41177,0.71791 -0.52455,1.85117 -1.30512,1.71332 -0.94707,-0.1665 -1.96216,-1.37495 -2.68544,-1.95859 -2.0839,-1.68108 -4.58494,-3.25654 -6.41462,-5.20975 -0.85576,-0.91305 0.90051,-3.3389 1.955,-3.53046 0.89514,-0.16292 2.38825,0.76446 3.20641,1.10282 1.23173,0.50666 2.49746,0.98108 3.75962,1.40717 -0.69284,-1.24246 -1.5683,-2.40973 -2.37751,-3.58058 -0.46906,-0.67674 -1.69004,-1.94247 -1.59873,-2.81256 0.11637,-1.09924 1.96395,-3.19925 3.08109,-2.48492 2.28084,1.45909 4.34147,3.53941 6.44506,5.25093 0.7197,0.58542 2.14298,1.29438 2.47419,2.20206 0.26675,0.72507 -0.81638,2.0463 -1.57904,1.92994 -1.22993,-0.1844 -2.80539,-2.03378 -3.75962,-2.79644 -1.06343,-0.85039 -2.09822,-1.77418 -3.22253,-2.54222 m -164.88605,-2.86447 c 1.66318,2.37035 4.73014,4.45783 4.44459,7.69826 -0.35967,4.07829 -4.74088,7.3223 -8.74129,6.07805 -1.53715,-0.4798 -2.53792,-1.71331 -3.58059,-2.85552 -0.72972,-0.80026 -1.67249,-1.62738 -1.96932,-2.68544 3.34552,-2.34707 6.14106,-6.51846 9.84661,-8.23535 m -6.26603,8.77244 c 1.43439,4.21972 7.54359,2.45807 8.02321,-1.43224 0.21394,-1.73658 -1.16423,-4.50079 -3.01038,-2.86268 -0.65507,0.58006 -1.30817,1.1637 -1.96933,1.73838 -0.99844,0.8665 -1.99027,1.75628 -3.0435,2.55654 m 13.60624,17.18682 c -0.75515,-0.35269 -1.98616,-1.21382 -2.0216,-2.14836 -0.0541,-1.4197 1.41487,-2.07315 0.0482,-3.34963 -0.5806,-0.54425 -1.52014,-1.75091 -2.32327,-1.89055 -0.9041,-0.15755 -1.61914,0.99003 -2.4903,1.07775 -0.68801,0.0698 -1.44799,-0.85218 -1.98543,-1.20845 1.91221,-2.23249 5.8684,-3.62892 8.41438,-5.0898 0.8921,-0.51023 2.1718,-1.6238 3.22235,-1.69004 0.75425,-0.0483 2.03019,1.1064 2.2896,1.77418 0.37024,0.95423 -0.75532,2.73557 -1.17085,3.57343 -1.44691,2.91997 -2.45342,6.07984 -3.98304,8.95147 m 1.61126,-11.27885 -3.75962,2.32738 v 0.17903 l 2.14836,1.79029 c 0.53279,-0.99898 1.90344,-3.19925 1.61126,-4.2967 m 149.3105,8.59341 c -0.41177,0.811 -1.4949,1.91203 -2.50642,1.63453 -0.72148,-0.19693 -1.38031,-0.99182 -2.14835,-0.97212 -0.54783,0.0143 -1.03121,0.52276 -1.43223,0.84143 -2.05705,1.63812 -1.66677,2.30232 -0.89515,4.58316 l -2.14835,1.2532 -4.65477,-12.71108 2.50641,-1.65782 3.22253,1.82789 8.05633,5.20081 m -139.28485,5.01282 h 0.17903 l 4.11767,-6.26603 c 0.63305,0.18619 1.8603,0.59259 1.78671,1.4394 -0.0926,1.06343 -1.4709,2.37035 -2.06886,3.21536 -1.64922,2.33097 -3.52043,4.6673 -4.9097,7.16118 l -2.32738,-1.43224 0.89514,-9.66758 h -0.17903 l -4.65476,6.80311 h -0.17903 l -1.41129,-1.44834 1.71725,-2.84836 5.24395,-7.51923 2.39828,1.66497 -0.17402,3.16882 -0.43396,5.72894 m 128.54308,-8.59341 1.61127,4.2967 2.32738,-1.61126 v -0.17903 l -3.93865,-2.50641 m -5.54991,0.53709 c 0.51024,2.74989 -0.23632,5.93482 0.66241,8.59341 0.41535,1.22635 2.65322,3.12585 2.40258,4.44172 -0.15576,0.81816 -1.65245,1.33197 -2.34887,1.46625 -0.72865,-1.36958 -1.58441,-3.16882 -2.71946,-4.23763 -1.82072,-1.71689 -5.1829,-3.03455 -7.48521,-3.99772 v -0.35806 c 0.71074,-0.4798 1.62558,-1.34093 2.50641,-1.42687 1.53965,-0.15038 3.6325,1.72764 5.01282,2.32201 l -0.35806,-5.37088 2.32738,-1.43223 m -3.22253,17.54487 -2.68544,0.86651 -2.22354,-1.65961 -3.86346,1.68825 c 0.5353,2.21997 0.40461,3.20284 -1.79029,4.11768 -0.40819,-3.22432 -0.87903,-6.44148 -1.28185,-9.66759 -0.12174,-0.99003 -0.81458,-2.74094 -0.39744,-3.68979 0.3312,-0.75372 2.33096,-1.6417 3.05961,-1.22277 1.36957,0.78414 2.38825,2.3596 3.46064,3.48033 1.81177,1.89413 4.50795,3.74708 5.72177,6.08699 m -110.81918,-1.79029 2.68545,0.71612 c -0.20535,1.36599 0.6565,2.44733 1.96932,2.89132 0.75443,0.25422 2.07173,0.28287 2.22587,-0.74655 0.14824,-0.99003 -1.24551,-1.90666 -1.86763,-2.48672 -1.80945,-1.68645 -3.08396,-3.81153 -1.29564,-6.09595 2.25183,-2.877 8.95594,-0.39565 8.40865,3.38366 -0.14788,1.02047 -1.77149,0.64271 -2.40168,0.27749 -0.43146,-0.25243 -2.85516,-4.54913 -3.70966,-1.69182 -0.30328,1.01509 1.24532,1.97111 1.86262,2.52968 1.83791,1.66318 3.15861,4.01742 1.21489,6.23201 -3.49125,3.97983 -9.42393,-0.80026 -9.09219,-5.00924 m 101.1516,-4.2967 0.53709,4.47573 2.50641,-1.07418 -3.0435,-3.40155 m -82.8906,1.96932 c -0.53727,2.32201 -1.50062,4.5366 -2.22426,6.80312 -0.27051,0.8468 -0.86955,1.94783 -0.50665,2.84835 0.59061,1.46446 2.62689,1.57367 3.47388,0.37059 1.6784,-2.38288 2.01551,-5.92766 3.19568,-8.58983 l 2.14835,0.71612 c -0.96533,2.96652 -1.8159,8.43945 -4.31336,10.48754 -2.28924,1.87623 -6.91787,0.32763 -7.44368,-2.61025 -0.53082,-2.9683 1.72083,-8.35709 3.16363,-10.92079 l 2.50641,0.89515 m 65.70378,1.25321 c 1.97523,-0.64272 4.12161,-1.78851 6.21411,-1.90667 6.95708,-0.39386 8.53075,9.81976 2.73736,12.60188 -0.85039,0.40819 -3.84752,1.87086 -4.70812,1.28722 -0.70895,-0.4798 -0.92719,-2.25935 -1.20934,-3.03097 -1.06164,-2.90564 -2.32112,-5.94198 -3.03401,-8.95146 m 3.40156,1.2532 2.68544,7.87729 c 1.26932,-0.41356 2.4903,-0.77699 3.25475,-1.96932 1.24426,-1.9371 -0.0752,-5.59467 -2.18058,-6.4182 -1.24067,-0.48517 -2.5773,0.12532 -3.75961,0.51023 m -55.49911,8.59341 h 0.17903 c 0.64576,-1.55039 1.53822,-3.00769 2.35227,-4.47573 0.31384,-0.56574 0.57593,-1.41971 1.144,-1.78493 0.65023,-0.41893 3.40925,0.004 3.72882,0.76446 0.3568,0.85039 -0.31706,2.64426 -0.49359,3.52688 -0.58363,2.92176 -1.15133,5.8471 -1.71868,8.77244 l -2.86447,-0.53709 1.7903,-8.95147 h -0.17903 c -0.70251,2.43838 -2.43552,4.72458 -3.58668,6.98214 -0.39905,0.78236 -1.01312,1.93531 -2.08533,1.22098 -0.61067,-0.40639 -0.45312,-1.64707 -0.5455,-2.29515 -0.33479,-2.34887 -0.75801,-4.78725 -0.76464,-7.16118 h -0.17903 l -1.79029,8.95147 -2.14835,-0.35806 c 0.0877,-4.24836 1.51942,-8.7241 2.32738,-12.89011 l 3.8058,0.8844 0.38778,1.80104 0.64021,5.54991 m 42.96705,-0.17903 3.0435,5.37088 c -0.77949,0.0985 -1.90899,0.53709 -2.66664,0.24706 -1.12878,-0.42967 -2.41583,-3.46064 -2.88327,-4.54376 l -2.68544,0.53708 0.89514,5.01283 -2.57802,0.17366 -0.72041,-3.03813 -1.71439,-9.48856 c 2.49442,-0.31688 6.18994,-1.79745 8.59341,-0.76445 2.48242,1.06701 3.31008,5.07727 0.71612,6.49339 m -24.88508,1.25321 c 2.32774,1.21919 2.47293,4.94837 -1.8e-4,6.16398 -2.23142,1.09745 -5.64193,0.28107 -8.05614,0.28107 l 0.35805,-13.06914 c 2.38987,0.44399 5.03861,-0.29361 7.34021,0.6463 2.73414,1.11893 2.35191,4.4256 0.35806,5.97779 m 13.24817,-6.62409 c 0,0.59259 0.21072,1.70436 -0.18333,2.19311 -0.64969,0.80563 -4.35363,0.49233 -5.36658,0.49233 l 0.17903,2.86447 c 1.06254,0 3.4925,-0.68747 4.36778,0.005 0.47586,0.37596 0.43415,1.72763 -0.12729,2.00871 -0.97267,0.48696 -3.14053,0.26675 -4.24049,0.3133 l 0.17903,2.86447 5.90797,-0.17903 v 2.32738 l -8.59341,0.35806 -0.53709,-12.89011 8.41438,-0.35806 m 5.54991,1.43223 c 0.0324,0.74477 0.0815,2.34708 0.56896,2.93251 0.36271,0.43504 1.12967,0.10204 1.57939,0.0125 0.73313,-0.14681 1.69684,-0.2041 2.19455,-0.84681 1.0577,-1.366 -0.33067,-2.51357 -1.65746,-2.44017 -0.89962,0.0519 -1.78689,0.27033 -2.68544,0.34194 m -23.98993,3.93865 c 0.71951,0.0304 1.42614,0.18798 2.14835,0.17545 0.35806,-0.007 0.72525,-0.0304 1.05735,-0.17724 3.20695,-1.42149 -2.11989,-4.43456 -3.09775,-2.44733 -0.31617,0.64271 -0.10795,1.74553 -0.10795,2.44912 m -0.17903,5.37088 c 1.05,0 2.58339,0.28287 3.56179,-0.13248 2.95881,-1.25679 -1.95805,-4.41665 -3.37775,-2.62457 -0.46208,0.58363 -0.18404,2.0463 -0.18404,2.75705 z"
         id="path839" />
    </g>
  </g>
</svg>
